HIERARCHY
ROOT Hips
{
	OFFSET 0.000000 0.000000 0.000000
	CHANNELS 6 Xposition Yposition Zposition Xrotation Yrotation Zrotation
	JOINT LeftUpLeg_virtual
	{
		OFFSET 0.000000 0.000000 0.000000
		CHANNELS 3 Xrotation Yrotation Zrotation
		JOINT LeftUpLeg
		{
			OFFSET 15.427100 -6.655098 0.678600
			CHANNELS 3 Xrotation Yrotation Zrotation
			JOINT LeftLeg
			{
				OFFSET 4.081073 -39.591068 13.024000
				CHANNELS 3 Xrotation Yrotation Zrotation
				JOINT LeftFoot
				{
					OFFSET -4.081074 -37.707932 -15.979700
					CHANNELS 3 Xrotation Yrotation Zrotation
					JOINT LeftToeBase
					{
						OFFSET 5.346399 -15.068900 20.645000
						CHANNELS 3 Xrotation Yrotation Zrotation
						JOINT LeftToe_End
						{
							OFFSET 2.754700 0.931300 11.300900
							CHANNELS 3 Xrotation Yrotation Zrotation
							End Site
							{
								OFFSET 0 0 0
							}
						}
					}
				}
			}
		}
	}
	JOINT RightUpLeg_virtual
	{
		OFFSET 0.000000 0.000000 0.000000
		CHANNELS 3 Xrotation Yrotation Zrotation
		JOINT RightUpLeg
		{
			OFFSET -15.569500 -6.655098 0.678600
			CHANNELS 3 Xrotation Yrotation Zrotation
			JOINT RightLeg
			{
				OFFSET -4.081825 -39.591045 13.023800
				CHANNELS 3 Xrotation Yrotation Zrotation
				JOINT RightFoot
				{
					OFFSET 4.081824 -37.707954 -15.979600
					CHANNELS 3 Xrotation Yrotation Zrotation
					JOINT RightToeBase
					{
						OFFSET -5.346400 -15.068900 20.645000
						CHANNELS 3 Xrotation Yrotation Zrotation
						JOINT RightToe_End
						{
							OFFSET -2.754700 0.931300 11.300900
							CHANNELS 3 Xrotation Yrotation Zrotation
							End Site
							{
								OFFSET 0 0 0
							}
						}
					}
				}
			}
		}
	}
	JOINT Spine_virtual
	{
		OFFSET 0.000000 0.000000 0.000000
		CHANNELS 3 Xrotation Yrotation Zrotation
		JOINT Spine
		{
			OFFSET -0.279200 12.230698 -2.892100
			CHANNELS 3 Xrotation Yrotation Zrotation
			JOINT Spine1
			{
				OFFSET -0.232667 10.192268 -1.242267
				CHANNELS 3 Xrotation Yrotation Zrotation
				JOINT Spine1_split
				{
					OFFSET -0.232667 10.192268 -1.242267
					CHANNELS 3 Xrotation Yrotation Zrotation
					JOINT Spine2
					{
						OFFSET -0.232667 10.192268 -1.242267
						CHANNELS 3 Xrotation Yrotation Zrotation
						JOINT Neck_virtual
						{
							OFFSET 0.000000 0.000000 0.000000
							CHANNELS 3 Xrotation Yrotation Zrotation
							JOINT Neck
							{
								OFFSET -0.418800 17.814194 8.416900
								CHANNELS 3 Xrotation Yrotation Zrotation
								JOINT Head
								{
									OFFSET 0.000000 7.031097 3.806800
									CHANNELS 3 Xrotation Yrotation Zrotation
									JOINT HeadTop_End
									{
										OFFSET 0.000000 24.646606 12.978600
										CHANNELS 3 Xrotation Yrotation Zrotation
										End Site
										{
											OFFSET 0 0 0
										}
									}
								}
							}
						}
						JOINT LeftShoulder_virtual
						{
							OFFSET 0.000000 0.000000 0.000000
							CHANNELS 3 Xrotation Yrotation Zrotation
							JOINT LeftShoulder
							{
								OFFSET 8.476499 7.247704 -3.868750
								CHANNELS 3 Xrotation Yrotation Zrotation
								JOINT LeftShoulder_split
								{
									OFFSET 8.476499 7.247704 -3.868750
									CHANNELS 3 Xrotation Yrotation Zrotation
									JOINT LeftArm
									{
										OFFSET 9.308998 -2.777710 0.208600
										CHANNELS 3 Xrotation Yrotation Zrotation
										JOINT LeftForeArm
										{
											OFFSET 29.972298 0.000000 0.000000
											CHANNELS 3 Xrotation Yrotation Zrotation
											JOINT LeftHand
											{
												OFFSET 26.026505 0.000000 0.000000
												CHANNELS 3 Xrotation Yrotation Zrotation
												End Site
												{
													OFFSET 0 0 0
												}
											}
										}
									}
								}
							}
						}
						JOINT RightShoulder_virtual
						{
							OFFSET 0.000000 0.000000 0.000000
							CHANNELS 3 Xrotation Yrotation Zrotation
							JOINT RightShoulder
							{
								OFFSET -7.570500 7.247704 -3.868750
								CHANNELS 3 Xrotation Yrotation Zrotation
								JOINT RightShoulder_split
								{
									OFFSET -7.570500 7.247704 -3.868750
									CHANNELS 3 Xrotation Yrotation Zrotation
									JOINT RightArm
									{
										OFFSET -9.308998 -2.777710 0.208500
										CHANNELS 3 Xrotation Yrotation Zrotation
										JOINT RightForeArm
										{
											OFFSET -29.972300 0.000000 0.000000
											CHANNELS 3 Xrotation Yrotation Zrotation
											JOINT RightHand
											{
												OFFSET -26.026505 0.000000 0.000000
												CHANNELS 3 Xrotation Yrotation Zrotation
												End Site
												{
													OFFSET 0 0 0
												}
											}
										}
									}
								}
							}
						}
					}
				}
			}
		}
	}
}
MOTION
Frames: 7
Frame Time: 0.03333333
3.148912 82.250076 0.053520 0.000000 0.000000 0.000000 8.472924 -67.944864 10.263686 -33.193186 11.134306 24.615834 32.811884 -7.242654 -0.786279 -5.272089 -2.328889 -15.911675 1.134048 0.058075 0.903598 0.000000 0.000000 0.000000 6.074351 -66.831693 8.636817 -21.926992 -11.983009 -33.335886 25.507299 -1.994601 -1.352804 -5.407705 -4.280949 23.701093 -2.375707 0.259498 -0.201670 0.000000 0.000000 0.000000 2.571541 -64.712013 5.643860 16.649599 0.655841 -4.036405 4.578865 0.842804 -2.639183 0.415688 2.467674 0.461160 0.000000 0.000000 0.000000 4.122020 0.585960 -2.619858 -4.811365 2.905715 2.965148 -15.415354 52.331065 -3.551520 0.000000 0.000000 0.000000 4.692503 0.207929 -2.727185 2.635031 -3.192108 -11.093828 -3.140879 -5.855663 1.504031 -38.187485 28.458289 -33.186701 3.187349 -42.993053 4.480660 0.000000 0.000000 0.000000 5.286799 0.684162 -2.366810 1.742211 5.791239 9.497531 4.303895 4.794393 0.494040 4.502906 -9.675815 55.278596 -20.527507 35.170358 13.508359 0.000000 0.000000 0.000000 
2.653186 82.782486 1.872177 0.000000 0.000000 0.000000 7.850981 -68.291018 9.594170 -33.277279 12.008045 24.714838 33.299129 -7.124923 -0.560604 -5.157767 -1.961978 -16.284293 0.729183 -0.045605 1.278580 0.000000 0.000000 0.000000 7.304377 -67.801287 9.313266 -21.432965 -11.409887 -33.004499 26.184987 -2.208348 -1.282053 -4.260787 -4.549887 23.100668 -2.561461 0.036764 0.250919 0.000000 0.000000 0.000000 3.728365 -65.193951 6.235661 16.475601 0.493723 -3.954355 4.519929 0.701860 -2.571386 0.272567 2.504500 0.427542 0.000000 0.000000 0.000000 3.823012 0.502682 -2.582017 -5.045658 3.059138 2.514486 -14.566924 52.282250 -4.172396 0.000000 0.000000 0.000000 4.590753 0.062151 -2.692551 2.670415 -3.670548 -10.799471 -3.385201 -5.787395 1.709310 -39.087769 28.623863 -32.573295 3.105024 -43.967926 4.605829 0.000000 0.000000 0.000000 5.229550 0.645029 -2.327399 1.733802 6.331028 9.843542 3.736531 4.050492 0.133553 3.338237 -9.797619 54.705085 -20.028792 33.745854 12.992753 0.000000 0.000000 0.000000 
2.084666 83.289436 4.253712 0.000000 0.000000 0.000000 7.558497 -68.918583 9.131517 -32.963050 13.101128 24.575161 34.100542 -6.756366 -0.501161 -6.000349 -1.155916 -15.626018 -0.038874 -0.135101 1.684228 0.000000 0.000000 0.000000 8.722350 -68.849024 10.118971 -21.184622 -9.817048 -32.464429 27.924381 -2.406477 -0.928112 -3.516076 -5.473669 22.298951 -3.407666 -0.164375 0.808073 0.000000 0.000000 0.000000 5.277116 -65.745024 7.105488 16.169457 0.309299 -3.782554 4.248871 0.325125 -2.417160 0.260363 2.461417 0.316485 0.000000 0.000000 0.000000 3.335395 0.131142 -2.401379 -5.093456 3.674570 1.963563 -13.646373 52.339432 -4.922236 0.000000 0.000000 0.000000 4.266245 -0.346543 -2.534876 2.694569 -4.162793 -10.652505 -3.531906 -5.347495 1.791882 -40.519298 28.502480 -31.585015 4.396622 -43.804950 5.707416 0.000000 0.000000 0.000000 4.894965 0.322808 -2.173305 1.809215 6.951595 10.210287 3.207323 3.412190 -0.089609 1.183834 -9.803647 53.800512 -18.956905 30.761864 11.871773 0.000000 0.000000 0.000000 
1.488250 83.440865 6.803303 0.000000 0.000000 0.000000 7.747053 -69.609832 9.026691 -32.621837 14.153121 24.269250 35.424896 -6.263689 -0.569820 -7.790663 -0.149469 -14.017120 -0.662496 -0.195042 1.919448 0.000000 0.000000 0.000000 10.385173 -69.678639 11.163367 -21.511013 -7.520850 -31.658487 29.913862 -2.414290 -0.361539 -3.660190 -6.665542 21.465101 -4.164840 -0.261388 1.232068 0.000000 0.000000 0.000000 6.874112 -66.153626 8.037914 15.822558 0.085356 -3.548729 3.829493 -0.242296 -2.193618 0.332340 2.261242 0.270118 0.000000 0.000000 0.000000 2.772637 -0.469742 -2.114000 -4.938054 4.639248 1.385491 -12.903735 52.381745 -5.558641 0.000000 0.000000 0.000000 3.787808 -0.955374 -2.280819 2.712617 -4.630646 -10.667825 -3.712306 -4.665331 1.837340 -42.071465 27.974356 -30.573740 6.672062 -42.473586 7.479618 0.000000 0.000000 0.000000 4.378436 -0.247251 -1.946207 1.978590 7.498611 10.575996 2.870256 3.046140 -0.199398 -1.388958 -9.425041 52.973619 -17.698984 27.403515 10.587544 0.000000 0.000000 0.000000 
0.972655 83.078087 9.009743 0.000000 0.000000 0.000000 8.640751 -70.053268 9.516166 -32.830042 14.933184 23.938527 37.427989 -5.893667 -0.674126 -10.238636 0.699161 -11.933540 -0.873778 -0.217710 1.919489 0.000000 0.000000 0.000000 12.169293 -69.957652 12.327231 -22.665488 -5.061084 -30.554240 31.927350 -2.213517 0.348119 -5.037663 -7.777055 20.619662 -3.887357 -0.178164 1.357706 0.000000 0.000000 0.000000 8.679606 -66.405380 9.133302 15.466159 -0.175173 -3.263872 3.358927 -0.914225 -1.944142 0.403614 1.770863 0.307440 0.000000 0.000000 0.000000 2.247291 -1.195784 -1.791376 -4.691056 5.808010 0.797899 -12.709280 52.189434 -5.772113 0.000000 0.000000 0.000000 3.269357 -1.655587 -1.990792 2.721943 -5.039072 -10.715319 -3.890254 -4.018003 1.794429 -43.476603 26.803515 -29.771360 9.361713 -40.449999 9.516181 0.000000 0.000000 0.000000 3.796053 -0.971847 -1.701317 2.220395 7.825546 10.902598 2.641515 2.878140 -0.281439 -3.715605 -8.638670 52.544215 -16.488183 24.709835 9.398863 0.000000 0.000000 0.000000 
0.517310 81.940689 10.848545 0.000000 0.000000 0.000000 10.421374 -70.084708 10.777402 -33.975099 15.187127 23.729670 40.352525 -5.951631 -0.669478 -12.861943 1.106994 -10.059293 -0.883911 -0.212493 1.874447 0.000000 0.000000 0.000000 13.901200 -69.742324 13.541332 -24.787206 -2.996845 -29.252720 34.086121 -1.748363 1.205826 -7.606058 -8.629963 19.884499 -2.293920 0.050102 1.158302 0.000000 0.000000 0.000000 10.565760 -66.230849 10.318911 15.048041 -0.440440 -2.985334 2.937183 -1.583284 -1.729302 0.433460 1.195198 0.369006 0.000000 0.000000 0.000000 1.873208 -1.916174 -1.508711 -4.507896 7.036171 0.193495 -13.388345 51.617106 -5.308295 0.000000 0.000000 0.000000 2.835702 -2.321752 -1.726921 2.739467 -5.389239 -10.680860 -3.948581 -3.441334 1.579424 -44.669745 24.967666 -29.172739 11.992347 -38.231615 11.494915 0.000000 0.000000 0.000000 3.260212 -1.721326 -1.511669 2.514659 7.807053 11.128983 2.594031 2.748471 -0.281315 -5.314603 -7.546574 52.699530 -15.413083 23.222981 8.382117 0.000000 0.000000 0.000000 
-0.003579 80.114273 12.200943 0.000000 0.000000 0.000000 12.838264 -69.500863 12.689666 -36.047351 14.836501 23.603761 44.105865 -6.452299 -0.461877 -15.284544 1.124384 -8.842507 -0.971314 -0.210080 1.889947 0.000000 0.000000 0.000000 15.697212 -69.089529 14.963394 -27.950241 -1.797796 -28.107661 37.018683 -0.930031 2.159686 -10.926085 -9.117679 19.355016 -0.222408 0.336580 0.661275 0.000000 0.000000 0.000000 12.723943 -65.547836 11.761243 14.572451 -0.668917 -2.746244 2.634692 -2.153196 -1.614528 0.442693 0.747555 0.488012 0.000000 0.000000 0.000000 1.691415 -2.517452 -1.330142 -4.542444 8.220791 -0.417615 -14.980596 50.640177 -4.130090 0.000000 0.000000 0.000000 2.538981 -2.850562 -1.571946 2.789050 -5.727249 -10.497219 -4.025160 -3.059193 1.382997 -45.820099 22.610651 -28.650475 14.191722 -35.979609 13.175344 0.000000 0.000000 0.000000 2.872945 -2.358247 -1.435845 2.863177 7.518645 11.294594 2.656085 2.587656 -0.262175 -6.237371 -6.492771 53.336650 -14.541850 23.008290 7.561610 0.000000 0.000000 0.000000 
